<?xml version="1.0" encoding="UTF-8" standalone="no"?>
<!DOCTYPE svg PUBLIC "-//W3C//DTD SVG 1.1//EN"
 "http://www.w3.org/Graphics/SVG/1.1/DTD/svg11.dtd">
<!-- Generated by graphviz version 2.40.1 (20161225.0304)
 -->
<!-- Title: dependencies Pages: 1 -->
<svg width="1298pt" height="211pt"
 viewBox="0.00 0.00 1298.00 211.00" xmlns="http://www.w3.org/2000/svg" xmlns:xlink="http://www.w3.org/1999/xlink">
<g id="graph0" class="graph" transform="scale(1 1) rotate(0) translate(4 207)">
<title>dependencies</title>
<polygon fill="#ffffff" stroke="transparent" points="-4,4 -4,-207 1294,-207 1294,4 -4,4"/>
<text text-anchor="start" x="624.0091" y="-42.4" font-family="sans-serif" font-weight="bold" font-size="14.00" fill="#000000">Legend</text>
<polygon fill="#ffffb3" stroke="transparent" points="411,-10 411,-30 431,-30 431,-10 411,-10"/>
<text text-anchor="start" x="434.629" y="-15.4" font-family="sans-serif" font-size="14.00" fill="#000000"> &#160;Declarations</text>
<polygon fill="#8dd3c7" stroke="transparent" points="524,-10 524,-30 544,-30 544,-10 524,-10"/>
<text text-anchor="start" x="547.7251" y="-15.4" font-family="sans-serif" font-size="14.00" fill="#000000"> &#160;Module</text>
<polygon fill="#80b1d3" stroke="transparent" points="610,-10 610,-30 630,-30 630,-10 610,-10"/>
<text text-anchor="start" x="633.7812" y="-15.4" font-family="sans-serif" font-size="14.00" fill="#000000"> &#160;Bootstrap</text>
<polygon fill="#fdb462" stroke="transparent" points="707,-10 707,-30 727,-30 727,-10 707,-10"/>
<text text-anchor="start" x="730.6732" y="-15.4" font-family="sans-serif" font-size="14.00" fill="#000000"> &#160;Providers</text>
<polygon fill="#fb8072" stroke="transparent" points="803,-10 803,-30 823,-30 823,-10 803,-10"/>
<text text-anchor="start" x="826.7258" y="-15.4" font-family="sans-serif" font-size="14.00" fill="#000000"> &#160;Exports</text>
<g id="clust1" class="cluster">
<title>cluster_ProductModule</title>
<polygon fill="none" stroke="#000000" stroke-dasharray="1,5" points="8,-70 8,-195 1282,-195 1282,-70 8,-70"/>
</g>
<g id="clust2" class="cluster">
<title>cluster_ProductModule_declarations</title>
<polygon fill="none" stroke="#000000" points="801,-78 801,-130 1274,-130 1274,-78 801,-78"/>
</g>
<g id="clust6" class="cluster">
<title>cluster_ProductModule_imports</title>
<polygon fill="none" stroke="#000000" points="376,-78 376,-130 793,-130 793,-78 376,-78"/>
</g>
<g id="clust9" class="cluster">
<title>cluster_ProductModule_providers</title>
<polygon fill="none" stroke="#000000" points="16,-78 16,-130 368,-130 368,-78 16,-78"/>
</g>
<!-- ProductListComponent -->
<g id="node1" class="node">
<title>ProductListComponent</title>
<polygon fill="#ffffb3" stroke="#000000" points="1266.1596,-122 1119.8404,-122 1119.8404,-86 1266.1596,-86 1266.1596,-122"/>
<text text-anchor="middle" x="1193" y="-99.8" font-family="Times,serif" font-size="14.00" fill="#000000">ProductListComponent</text>
</g>
<!-- ProductModule -->
<g id="node4" class="node">
<title>ProductModule</title>
<polygon fill="#8dd3c7" stroke="#000000" points="713.5982,-187 710.5982,-191 689.5982,-191 686.5982,-187 610.4018,-187 610.4018,-151 713.5982,-151 713.5982,-187"/>
<text text-anchor="middle" x="662" y="-164.8" font-family="Times,serif" font-size="14.00" fill="#000000">ProductModule</text>
</g>
<!-- ProductListComponent&#45;&gt;ProductModule -->
<g id="edge1" class="edge">
<title>ProductListComponent&#45;&gt;ProductModule</title>
<path fill="none" stroke="#000000" d="M1193,-122.2921C1193,-144.2057 1193,-178 1193,-178 1193,-178 723.8813,-178 723.8813,-178"/>
<polygon fill="#000000" stroke="#000000" points="723.8814,-174.5001 713.8813,-178 723.8813,-181.5001 723.8814,-174.5001"/>
</g>
<!-- ProductFilterPipe -->
<g id="node2" class="node">
<title>ProductFilterPipe</title>
<polygon fill="#ffffb3" stroke="#000000" points="1101.266,-122 986.734,-122 986.734,-86 1101.266,-86 1101.266,-122"/>
<text text-anchor="middle" x="1044" y="-99.8" font-family="Times,serif" font-size="14.00" fill="#000000">ProductFilterPipe</text>
</g>
<!-- ProductFilterPipe&#45;&gt;ProductModule -->
<g id="edge2" class="edge">
<title>ProductFilterPipe&#45;&gt;ProductModule</title>
<path fill="none" stroke="#000000" d="M1044,-122.1061C1044,-141.3391 1044,-169 1044,-169 1044,-169 723.9158,-169 723.9158,-169"/>
<polygon fill="#000000" stroke="#000000" points="723.9158,-165.5001 713.9158,-169 723.9157,-172.5001 723.9158,-165.5001"/>
</g>
<!-- ProductDetailComponent -->
<g id="node3" class="node">
<title>ProductDetailComponent</title>
<polygon fill="#ffffb3" stroke="#000000" points="968.5884,-122 809.4116,-122 809.4116,-86 968.5884,-86 968.5884,-122"/>
<text text-anchor="middle" x="889" y="-99.8" font-family="Times,serif" font-size="14.00" fill="#000000">ProductDetailComponent</text>
</g>
<!-- ProductDetailComponent&#45;&gt;ProductModule -->
<g id="edge3" class="edge">
<title>ProductDetailComponent&#45;&gt;ProductModule</title>
<path fill="none" stroke="#000000" d="M889,-122.027C889,-138.3976 889,-160 889,-160 889,-160 723.7939,-160 723.7939,-160"/>
<polygon fill="#000000" stroke="#000000" points="723.7939,-156.5001 713.7939,-160 723.7938,-163.5001 723.7939,-156.5001"/>
</g>
<!-- HttpClientModule -->
<g id="node5" class="node">
<title>HttpClientModule</title>
<polygon fill="#8dd3c7" stroke="#000000" points="785.1611,-122 782.1611,-126 761.1611,-126 758.1611,-122 666.8389,-122 666.8389,-86 785.1611,-86 785.1611,-122"/>
<text text-anchor="middle" x="726" y="-99.8" font-family="Times,serif" font-size="14.00" fill="#000000">HttpClientModule</text>
</g>
<!-- HttpClientModule&#45;&gt;ProductModule -->
<g id="edge4" class="edge">
<title>HttpClientModule&#45;&gt;ProductModule</title>
<path fill="none" stroke="#000000" d="M690.1094,-122.1061C690.1094,-122.1061 690.1094,-140.991 690.1094,-140.991"/>
<polygon fill="#000000" stroke="#000000" points="686.6095,-140.9909 690.1094,-150.991 693.6095,-140.991 686.6095,-140.9909"/>
</g>
<!-- SharedModule -->
<g id="node6" class="node">
<title>SharedModule</title>
<polygon fill="#8dd3c7" stroke="#000000" points="648.4231,-122 645.4231,-126 624.4231,-126 621.4231,-122 549.5769,-122 549.5769,-86 648.4231,-86 648.4231,-122"/>
<text text-anchor="middle" x="599" y="-99.8" font-family="Times,serif" font-size="14.00" fill="#000000">SharedModule</text>
</g>
<!-- SharedModule&#45;&gt;ProductModule -->
<g id="edge5" class="edge">
<title>SharedModule&#45;&gt;ProductModule</title>
<path fill="none" stroke="#000000" d="M629.331,-122.1061C629.331,-122.1061 629.331,-140.991 629.331,-140.991"/>
<polygon fill="#000000" stroke="#000000" points="625.8311,-140.9909 629.331,-150.991 632.8311,-140.991 625.8311,-140.9909"/>
</g>
<!-- ProductRoutingModule -->
<g id="node7" class="node">
<title>ProductRoutingModule</title>
<polygon fill="#8dd3c7" stroke="#000000" points="532.2162,-122 529.2162,-126 508.2162,-126 505.2162,-122 383.7838,-122 383.7838,-86 532.2162,-86 532.2162,-122"/>
<text text-anchor="middle" x="458" y="-99.8" font-family="Times,serif" font-size="14.00" fill="#000000">ProductRoutingModule</text>
</g>
<!-- ProductRoutingModule&#45;&gt;ProductModule -->
<g id="edge6" class="edge">
<title>ProductRoutingModule&#45;&gt;ProductModule</title>
<path fill="none" stroke="#000000" d="M458,-122.027C458,-138.3976 458,-160 458,-160 458,-160 600.2585,-160 600.2585,-160"/>
<polygon fill="#000000" stroke="#000000" points="600.2585,-163.5001 610.2585,-160 600.2584,-156.5001 600.2585,-163.5001"/>
</g>
<!-- ProductDetailGuard -->
<g id="node8" class="node">
<title>ProductDetailGuard</title>
<ellipse fill="#fdb462" stroke="#000000" cx="271" cy="-104" rx="88.6024" ry="18"/>
<text text-anchor="middle" x="271" y="-99.8" font-family="Times,serif" font-size="14.00" fill="#000000">ProductDetailGuard</text>
</g>
<!-- ProductDetailGuard&#45;&gt;ProductModule -->
<g id="edge7" class="edge">
<title>ProductDetailGuard&#45;&gt;ProductModule</title>
<path fill="none" stroke="#000000" d="M271,-122.1061C271,-141.3391 271,-169 271,-169 271,-169 600.0782,-169 600.0782,-169"/>
<polygon fill="#000000" stroke="#000000" points="600.0783,-172.5001 610.0782,-169 600.0782,-165.5001 600.0783,-172.5001"/>
</g>
<!-- ProductService -->
<g id="node9" class="node">
<title>ProductService</title>
<ellipse fill="#fdb462" stroke="#000000" cx="94" cy="-104" rx="70.0616" ry="18"/>
<text text-anchor="middle" x="94" y="-99.8" font-family="Times,serif" font-size="14.00" fill="#000000">ProductService</text>
</g>
<!-- ProductService&#45;&gt;ProductModule -->
<g id="edge8" class="edge">
<title>ProductService&#45;&gt;ProductModule</title>
<path fill="none" stroke="#000000" d="M94,-122.2921C94,-144.2057 94,-178 94,-178 94,-178 600.3403,-178 600.3403,-178"/>
<polygon fill="#000000" stroke="#000000" points="600.3403,-181.5001 610.3403,-178 600.3402,-174.5001 600.3403,-181.5001"/>
</g>
</g>
</svg>
