<?xml version="1.0" encoding="UTF-8" standalone="no"?>
<!DOCTYPE svg PUBLIC "-//W3C//DTD SVG 1.1//EN"
 "http://www.w3.org/Graphics/SVG/1.1/DTD/svg11.dtd">
<!-- Generated by graphviz version 2.40.1 (20161225.0304)
 -->
<!-- Title: dependencies Pages: 1 -->
<svg width="1905pt" height="436pt"
 viewBox="0.00 0.00 1905.00 436.00" xmlns="http://www.w3.org/2000/svg" xmlns:xlink="http://www.w3.org/1999/xlink">
<g id="graph0" class="graph" transform="scale(1 1) rotate(0) translate(4 432)">
<title>dependencies</title>
<polygon fill="#ffffff" stroke="transparent" points="-4,4 -4,-432 1901,-432 1901,4 -4,4"/>
<text text-anchor="start" x="927.5091" y="-42.4" font-family="sans-serif" font-weight="bold" font-size="14.00" fill="#000000">Legend</text>
<polygon fill="#ffffb3" stroke="transparent" points="714.5,-10 714.5,-30 734.5,-30 734.5,-10 714.5,-10"/>
<text text-anchor="start" x="738.129" y="-15.4" font-family="sans-serif" font-size="14.00" fill="#000000"> &#160;Declarations</text>
<polygon fill="#8dd3c7" stroke="transparent" points="827.5,-10 827.5,-30 847.5,-30 847.5,-10 827.5,-10"/>
<text text-anchor="start" x="851.2251" y="-15.4" font-family="sans-serif" font-size="14.00" fill="#000000"> &#160;Module</text>
<polygon fill="#80b1d3" stroke="transparent" points="913.5,-10 913.5,-30 933.5,-30 933.5,-10 913.5,-10"/>
<text text-anchor="start" x="937.2812" y="-15.4" font-family="sans-serif" font-size="14.00" fill="#000000"> &#160;Bootstrap</text>
<polygon fill="#fdb462" stroke="transparent" points="1010.5,-10 1010.5,-30 1030.5,-30 1030.5,-10 1010.5,-10"/>
<text text-anchor="start" x="1034.1732" y="-15.4" font-family="sans-serif" font-size="14.00" fill="#000000"> &#160;Providers</text>
<polygon fill="#fb8072" stroke="transparent" points="1106.5,-10 1106.5,-30 1126.5,-30 1126.5,-10 1106.5,-10"/>
<text text-anchor="start" x="1130.2258" y="-15.4" font-family="sans-serif" font-size="14.00" fill="#000000"> &#160;Exports</text>
<g id="clust1" class="cluster">
<title>cluster_AppModule</title>
<polygon fill="none" stroke="#000000" stroke-dasharray="1,5" points="195,-222 195,-420 883,-420 883,-222 195,-222"/>
</g>
<g id="clust2" class="cluster">
<title>cluster_AppModule_declarations</title>
<polygon fill="none" stroke="#000000" points="601,-230 601,-282 875,-282 875,-230 601,-230"/>
</g>
<g id="clust5" class="cluster">
<title>cluster_AppModule_imports</title>
<polygon fill="none" stroke="#000000" points="203,-230 203,-282 593,-282 593,-230 203,-230"/>
</g>
<g id="clust7" class="cluster">
<title>cluster_AppModule_bootstrap</title>
<polygon fill="none" stroke="#000000" points="470,-360 470,-412 594,-412 594,-360 470,-360"/>
</g>
<g id="clust9" class="cluster">
<title>cluster_AppRoutingModule</title>
<polygon fill="none" stroke="#000000" stroke-dasharray="1,5" points="1553,-222 1553,-290 1889,-290 1889,-222 1553,-222"/>
</g>
<g id="clust11" class="cluster">
<title>cluster_AppRoutingModule_imports</title>
<polygon fill="none" stroke="#000000" points="1687,-230 1687,-282 1881,-282 1881,-230 1687,-230"/>
</g>
<g id="clust12" class="cluster">
<title>cluster_AppRoutingModule_exports</title>
<polygon fill="none" stroke="#000000" points="1561,-230 1561,-282 1679,-282 1679,-230 1561,-230"/>
</g>
<g id="clust15" class="cluster">
<title>cluster_ProductModule</title>
<polygon fill="none" stroke="#000000" stroke-dasharray="1,5" points="8,-146 8,-214 1282,-214 1282,-146 8,-146"/>
</g>
<g id="clust16" class="cluster">
<title>cluster_ProductModule_declarations</title>
<polygon fill="none" stroke="#000000" points="376,-154 376,-206 849,-206 849,-154 376,-154"/>
</g>
<g id="clust20" class="cluster">
<title>cluster_ProductModule_imports</title>
<polygon fill="none" stroke="#000000" points="857,-154 857,-206 1274,-206 1274,-154 857,-154"/>
</g>
<g id="clust23" class="cluster">
<title>cluster_ProductModule_providers</title>
<polygon fill="none" stroke="#000000" points="16,-154 16,-206 368,-206 368,-154 16,-154"/>
</g>
<g id="clust24" class="cluster">
<title>cluster_ProductRoutingModule</title>
<polygon fill="none" stroke="#000000" stroke-dasharray="1,5" points="1085,-70 1085,-138 1299,-138 1299,-70 1085,-70"/>
</g>
<g id="clust26" class="cluster">
<title>cluster_ProductRoutingModule_imports</title>
<polygon fill="none" stroke="#000000" points="1093,-78 1093,-130 1291,-130 1291,-78 1093,-78"/>
</g>
<g id="clust30" class="cluster">
<title>cluster_SharedModule</title>
<polygon fill="none" stroke="#000000" stroke-dasharray="1,5" points="891,-222 891,-290 1545,-290 1545,-222 891,-222"/>
</g>
<g id="clust31" class="cluster">
<title>cluster_SharedModule_declarations</title>
<polygon fill="none" stroke="#000000" points="1417,-230 1417,-282 1537,-282 1537,-230 1417,-230"/>
</g>
<g id="clust33" class="cluster">
<title>cluster_SharedModule_imports</title>
<polygon fill="none" stroke="#000000" points="1281,-230 1281,-282 1409,-282 1409,-230 1281,-230"/>
</g>
<g id="clust34" class="cluster">
<title>cluster_SharedModule_exports</title>
<polygon fill="none" stroke="#000000" points="899,-230 899,-282 1273,-282 1273,-230 899,-230"/>
</g>
<!-- AppComponent -->
<g id="node1" class="node">
<title>AppComponent</title>
<polygon fill="#ffffb3" stroke="#000000" points="866.9399,-274 761.0601,-274 761.0601,-238 866.9399,-238 866.9399,-274"/>
<text text-anchor="middle" x="814" y="-251.8" font-family="Times,serif" font-size="14.00" fill="#000000">AppComponent</text>
</g>
<!-- AppModule -->
<g id="node3" class="node">
<title>AppModule</title>
<polygon fill="#8dd3c7" stroke="#000000" points="573.6571,-339 570.6571,-343 549.6571,-343 546.6571,-339 490.3429,-339 490.3429,-303 573.6571,-303 573.6571,-339"/>
<text text-anchor="middle" x="532" y="-316.8" font-family="Times,serif" font-size="14.00" fill="#000000">AppModule</text>
</g>
<!-- AppComponent&#45;&gt;AppModule -->
<g id="edge1" class="edge">
<title>AppComponent&#45;&gt;AppModule</title>
<path fill="none" stroke="#000000" d="M814,-274.2843C814,-295.3211 814,-327 814,-327 814,-327 583.9137,-327 583.9137,-327"/>
<polygon fill="#000000" stroke="#000000" points="583.9138,-323.5001 573.9137,-327 583.9137,-330.5001 583.9138,-323.5001"/>
</g>
<!-- WelcomeComponent -->
<g id="node2" class="node">
<title>WelcomeComponent</title>
<polygon fill="#ffffb3" stroke="#000000" points="743.472,-274 608.528,-274 608.528,-238 743.472,-238 743.472,-274"/>
<text text-anchor="middle" x="676" y="-251.8" font-family="Times,serif" font-size="14.00" fill="#000000">WelcomeComponent</text>
</g>
<!-- WelcomeComponent&#45;&gt;AppModule -->
<g id="edge2" class="edge">
<title>WelcomeComponent&#45;&gt;AppModule</title>
<path fill="none" stroke="#000000" d="M676,-274.0225C676,-291.3734 676,-315 676,-315 676,-315 584.0379,-315 584.0379,-315"/>
<polygon fill="#000000" stroke="#000000" points="584.0379,-311.5001 574.0379,-315 584.0378,-318.5001 584.0379,-311.5001"/>
</g>
<!-- AppComponent  -->
<g id="node7" class="node">
<title>AppComponent </title>
<polygon fill="#80b1d3" stroke="#000000" points="586.439,-404 477.561,-404 477.561,-368 586.439,-368 586.439,-404"/>
<text text-anchor="middle" x="532" y="-381.8" font-family="Times,serif" font-size="14.00" fill="#000000">AppComponent </text>
</g>
<!-- AppModule&#45;&gt;AppComponent  -->
<g id="edge6" class="edge">
<title>AppModule&#45;&gt;AppComponent </title>
<path fill="none" stroke="#000000" stroke-dasharray="1,5" d="M532,-339.1061C532,-339.1061 532,-357.991 532,-357.991"/>
<polygon fill="#000000" stroke="#000000" points="528.5001,-357.9909 532,-367.991 535.5001,-357.991 528.5001,-357.9909"/>
</g>
<!-- BrowserModule -->
<g id="node4" class="node">
<title>BrowserModule</title>
<polygon fill="#8dd3c7" stroke="#000000" points="585.4734,-274 582.4734,-278 561.4734,-278 558.4734,-274 478.5266,-274 478.5266,-238 585.4734,-238 585.4734,-274"/>
<text text-anchor="middle" x="532" y="-251.8" font-family="Times,serif" font-size="14.00" fill="#000000">BrowserModule</text>
</g>
<!-- BrowserModule&#45;&gt;AppModule -->
<g id="edge3" class="edge">
<title>BrowserModule&#45;&gt;AppModule</title>
<path fill="none" stroke="#000000" d="M532,-274.1061C532,-274.1061 532,-292.991 532,-292.991"/>
<polygon fill="#000000" stroke="#000000" points="528.5001,-292.9909 532,-302.991 535.5001,-292.991 528.5001,-292.9909"/>
</g>
<!-- ProductModule -->
<g id="node5" class="node">
<title>ProductModule</title>
<polygon fill="#8dd3c7" stroke="#000000" points="460.5982,-274 457.5982,-278 436.5982,-278 433.5982,-274 357.4018,-274 357.4018,-238 460.5982,-238 460.5982,-274"/>
<text text-anchor="middle" x="409" y="-251.8" font-family="Times,serif" font-size="14.00" fill="#000000">ProductModule</text>
</g>
<!-- ProductModule&#45;&gt;AppModule -->
<g id="edge4" class="edge">
<title>ProductModule&#45;&gt;AppModule</title>
<path fill="none" stroke="#000000" d="M409,-274.0225C409,-291.3734 409,-315 409,-315 409,-315 480.0144,-315 480.0144,-315"/>
<polygon fill="#000000" stroke="#000000" points="480.0144,-318.5001 490.0144,-315 480.0144,-311.5001 480.0144,-318.5001"/>
</g>
<!-- AppRoutingModule -->
<g id="node6" class="node">
<title>AppRoutingModule</title>
<polygon fill="#8dd3c7" stroke="#000000" points="339.2744,-274 336.2744,-278 315.2744,-278 312.2744,-274 210.7256,-274 210.7256,-238 339.2744,-238 339.2744,-274"/>
<text text-anchor="middle" x="275" y="-251.8" font-family="Times,serif" font-size="14.00" fill="#000000">AppRoutingModule</text>
</g>
<!-- AppRoutingModule&#45;&gt;AppModule -->
<g id="edge5" class="edge">
<title>AppRoutingModule&#45;&gt;AppModule</title>
<path fill="none" stroke="#000000" d="M307.1936,-274.2843C307.1936,-295.3211 307.1936,-327 307.1936,-327 307.1936,-327 480.2425,-327 480.2425,-327"/>
<polygon fill="#000000" stroke="#000000" points="480.2425,-330.5001 490.2425,-327 480.2424,-323.5001 480.2425,-330.5001"/>
</g>
<!-- RouterModule  -->
<g id="node9" class="node">
<title>RouterModule </title>
<polygon fill="#fb8072" stroke="#000000" points="1670.6523,-274 1569.3477,-274 1569.3477,-238 1670.6523,-238 1670.6523,-274"/>
<text text-anchor="middle" x="1620" y="-251.8" font-family="Times,serif" font-size="14.00" fill="#000000">RouterModule </text>
</g>
<!-- AppRoutingModule&#45;&gt;RouterModule  -->
<g id="edge8" class="edge">
<title>AppRoutingModule&#45;&gt;RouterModule </title>
<path fill="none" stroke="#000000" stroke-dasharray="5,2" d="M275,-274.207C275,-279.5549 275,-284 275,-284 275,-284 1620,-284 1620,-284 1620,-284 1620,-283.0207 1620,-283.0207"/>
<polygon fill="#000000" stroke="#000000" points="1623.5001,-284.2069 1620,-274.207 1616.5001,-284.207 1623.5001,-284.2069"/>
</g>
<!-- RouterModule.forRoot(args) -->
<g id="node8" class="node">
<title>RouterModule.forRoot(args)</title>
<polygon fill="#8dd3c7" stroke="#000000" points="1872.8419,-274 1869.8419,-278 1848.8419,-278 1845.8419,-274 1695.1581,-274 1695.1581,-238 1872.8419,-238 1872.8419,-274"/>
<text text-anchor="middle" x="1784" y="-251.8" font-family="Times,serif" font-size="14.00" fill="#000000">RouterModule.forRoot(args)</text>
</g>
<!-- RouterModule.forRoot(args)&#45;&gt;AppRoutingModule -->
<g id="edge7" class="edge">
<title>RouterModule.forRoot(args)&#45;&gt;AppRoutingModule</title>
<path fill="none" stroke="#000000" d="M1784,-274.1097C1784,-283.897 1784,-294 1784,-294 1784,-294 242.8065,-294 242.8065,-294 242.8065,-294 242.8065,-284.1097 242.8065,-284.1097"/>
<polygon fill="#000000" stroke="#000000" points="246.3065,-284.1096 242.8065,-274.1097 239.3065,-284.1097 246.3065,-284.1096"/>
</g>
<!-- ProductListComponent -->
<g id="node10" class="node">
<title>ProductListComponent</title>
<polygon fill="#ffffb3" stroke="#000000" points="663.1596,-198 516.8404,-198 516.8404,-162 663.1596,-162 663.1596,-198"/>
<text text-anchor="middle" x="590" y="-175.8" font-family="Times,serif" font-size="14.00" fill="#000000">ProductListComponent</text>
</g>
<!-- ProductListComponent&#45;&gt;ProductModule -->
<g id="edge9" class="edge">
<title>ProductListComponent&#45;&gt;ProductModule</title>
<path fill="none" stroke="#000000" d="M551.0785,-198.1944C551.0785,-206.2782 551.0785,-214 551.0785,-214 551.0785,-214 405.5977,-214 405.5977,-214 405.5977,-214 405.5977,-227.9445 405.5977,-227.9445"/>
<polygon fill="#000000" stroke="#000000" points="402.0978,-227.9444 405.5977,-237.9445 409.0978,-227.9445 402.0978,-227.9444"/>
</g>
<!-- ProductFilterPipe -->
<g id="node11" class="node">
<title>ProductFilterPipe</title>
<polygon fill="#ffffb3" stroke="#000000" points="498.266,-198 383.734,-198 383.734,-162 498.266,-162 498.266,-198"/>
<text text-anchor="middle" x="441" y="-175.8" font-family="Times,serif" font-size="14.00" fill="#000000">ProductFilterPipe</text>
</g>
<!-- ProductFilterPipe&#45;&gt;ProductModule -->
<g id="edge10" class="edge">
<title>ProductFilterPipe&#45;&gt;ProductModule</title>
<path fill="none" stroke="#000000" d="M394.6074,-198.0109C394.6074,-198.0109 394.6074,-227.855 394.6074,-227.855"/>
<polygon fill="#000000" stroke="#000000" points="391.1075,-227.8549 394.6074,-237.855 398.1075,-227.855 391.1075,-227.8549"/>
</g>
<!-- ProductDetailComponent -->
<g id="node12" class="node">
<title>ProductDetailComponent</title>
<polygon fill="#ffffb3" stroke="#000000" points="840.5884,-198 681.4116,-198 681.4116,-162 840.5884,-162 840.5884,-198"/>
<text text-anchor="middle" x="761" y="-175.8" font-family="Times,serif" font-size="14.00" fill="#000000">ProductDetailComponent</text>
</g>
<!-- ProductDetailComponent&#45;&gt;ProductModule -->
<g id="edge11" class="edge">
<title>ProductDetailComponent&#45;&gt;ProductModule</title>
<path fill="none" stroke="#000000" d="M712.4709,-198.1097C712.4709,-207.897 712.4709,-218 712.4709,-218 712.4709,-218 416.588,-218 416.588,-218 416.588,-218 416.588,-227.8903 416.588,-227.8903"/>
<polygon fill="#000000" stroke="#000000" points="413.0881,-227.8903 416.588,-237.8903 420.0881,-227.8904 413.0881,-227.8903"/>
</g>
<!-- HttpClientModule -->
<g id="node13" class="node">
<title>HttpClientModule</title>
<polygon fill="#8dd3c7" stroke="#000000" points="983.1611,-198 980.1611,-202 959.1611,-202 956.1611,-198 864.8389,-198 864.8389,-162 983.1611,-162 983.1611,-198"/>
<text text-anchor="middle" x="924" y="-175.8" font-family="Times,serif" font-size="14.00" fill="#000000">HttpClientModule</text>
</g>
<!-- HttpClientModule&#45;&gt;ProductModule -->
<g id="edge12" class="edge">
<title>HttpClientModule&#45;&gt;ProductModule</title>
<path fill="none" stroke="#000000" d="M887.0146,-198.0555C887.0146,-209.439 887.0146,-222 887.0146,-222 887.0146,-222 427.5782,-222 427.5782,-222 427.5782,-222 427.5782,-227.8056 427.5782,-227.8056"/>
<polygon fill="#000000" stroke="#000000" points="424.0783,-227.8055 427.5782,-237.8056 431.0783,-227.8056 424.0783,-227.8055"/>
</g>
<!-- SharedModule -->
<g id="node14" class="node">
<title>SharedModule</title>
<polygon fill="#8dd3c7" stroke="#000000" points="1100.4231,-198 1097.4231,-202 1076.4231,-202 1073.4231,-198 1001.5769,-198 1001.5769,-162 1100.4231,-162 1100.4231,-198"/>
<text text-anchor="middle" x="1051" y="-175.8" font-family="Times,serif" font-size="14.00" fill="#000000">SharedModule</text>
</g>
<!-- SharedModule&#45;&gt;ProductModule -->
<g id="edge13" class="edge">
<title>SharedModule&#45;&gt;ProductModule</title>
<path fill="none" stroke="#000000" d="M1006.0894,-198.1804C1006.0894,-211.0382 1006.0894,-226 1006.0894,-226 1006.0894,-226 438.5685,-226 438.5685,-226 438.5685,-226 438.5685,-227.8568 438.5685,-227.8568"/>
<polygon fill="#000000" stroke="#000000" points="435.0686,-227.8568 438.5685,-237.8568 442.0686,-227.8568 435.0686,-227.8568"/>
</g>
<!-- CommonModule  -->
<g id="node21" class="node">
<title>CommonModule </title>
<polygon fill="#fb8072" stroke="#000000" points="1264.6677,-274 1149.3323,-274 1149.3323,-238 1264.6677,-238 1264.6677,-274"/>
<text text-anchor="middle" x="1207" y="-251.8" font-family="Times,serif" font-size="14.00" fill="#000000">CommonModule </text>
</g>
<!-- SharedModule&#45;&gt;CommonModule  -->
<g id="edge21" class="edge">
<title>SharedModule&#45;&gt;CommonModule </title>
<path fill="none" stroke="#000000" stroke-dasharray="5,2" d="M1086.6861,-198.2819C1086.6861,-213.9478 1086.6861,-234 1086.6861,-234 1086.6861,-234 1207,-234 1207,-234 1207,-234 1207,-234.3832 1207,-234.3832"/>
<polygon fill="#000000" stroke="#000000" points="1203.5003,-227.832 1207,-237.8321 1210.5003,-227.8322 1203.5003,-227.832"/>
</g>
<!-- FormsModule  -->
<g id="node22" class="node">
<title>FormsModule </title>
<polygon fill="#fb8072" stroke="#000000" points="1131.3283,-274 1032.6717,-274 1032.6717,-238 1131.3283,-238 1131.3283,-274"/>
<text text-anchor="middle" x="1082" y="-251.8" font-family="Times,serif" font-size="14.00" fill="#000000">FormsModule </text>
</g>
<!-- SharedModule&#45;&gt;FormsModule  -->
<g id="edge22" class="edge">
<title>SharedModule&#45;&gt;FormsModule </title>
<path fill="none" stroke="#000000" stroke-dasharray="5,2" d="M1046.1109,-198.0109C1046.1109,-198.0109 1046.1109,-227.855 1046.1109,-227.855"/>
<polygon fill="#000000" stroke="#000000" points="1042.611,-227.8549 1046.1109,-237.855 1049.611,-227.855 1042.611,-227.8549"/>
</g>
<!-- StarComponent  -->
<g id="node23" class="node">
<title>StarComponent </title>
<polygon fill="#fb8072" stroke="#000000" points="1014.8815,-274 907.1185,-274 907.1185,-238 1014.8815,-238 1014.8815,-274"/>
<text text-anchor="middle" x="961" y="-251.8" font-family="Times,serif" font-size="14.00" fill="#000000">StarComponent </text>
</g>
<!-- SharedModule&#45;&gt;StarComponent  -->
<g id="edge23" class="edge">
<title>SharedModule&#45;&gt;StarComponent </title>
<path fill="none" stroke="#000000" stroke-dasharray="5,2" d="M1010.3899,-198.0109C1010.3899,-198.0109 1010.3899,-227.855 1010.3899,-227.855"/>
<polygon fill="#000000" stroke="#000000" points="1006.89,-227.8549 1010.3899,-237.855 1013.89,-227.855 1006.89,-227.8549"/>
</g>
<!-- ProductRoutingModule -->
<g id="node15" class="node">
<title>ProductRoutingModule</title>
<polygon fill="#8dd3c7" stroke="#000000" points="1266.2162,-198 1263.2162,-202 1242.2162,-202 1239.2162,-198 1117.7838,-198 1117.7838,-162 1266.2162,-162 1266.2162,-198"/>
<text text-anchor="middle" x="1192" y="-175.8" font-family="Times,serif" font-size="14.00" fill="#000000">ProductRoutingModule</text>
</g>
<!-- ProductRoutingModule&#45;&gt;ProductModule -->
<g id="edge14" class="edge">
<title>ProductRoutingModule&#45;&gt;ProductModule</title>
<path fill="none" stroke="#000000" d="M1124.653,-198.0511C1124.653,-212.373 1124.653,-230 1124.653,-230 1124.653,-230 449.5588,-230 449.5588,-230 449.5588,-230 449.5588,-230.7942 449.5588,-230.7942"/>
<polygon fill="#000000" stroke="#000000" points="446.059,-227.9421 449.5588,-237.9421 453.059,-227.9422 446.059,-227.9421"/>
</g>
<!-- ProductRoutingModule&#45;&gt;RouterModule  -->
<g id="edge18" class="edge">
<title>ProductRoutingModule&#45;&gt;RouterModule </title>
<path fill="none" stroke="#000000" stroke-dasharray="5,2" d="M1266.5519,-180C1389.1768,-180 1620,-180 1620,-180 1620,-180 1620,-227.9891 1620,-227.9891"/>
<polygon fill="#000000" stroke="#000000" points="1616.5001,-227.989 1620,-237.9891 1623.5001,-227.9891 1616.5001,-227.989"/>
</g>
<!-- ProductDetailGuard -->
<g id="node16" class="node">
<title>ProductDetailGuard</title>
<ellipse fill="#fdb462" stroke="#000000" cx="271" cy="-180" rx="88.6024" ry="18"/>
<text text-anchor="middle" x="271" y="-175.8" font-family="Times,serif" font-size="14.00" fill="#000000">ProductDetailGuard</text>
</g>
<!-- ProductDetailGuard&#45;&gt;ProductModule -->
<g id="edge15" class="edge">
<title>ProductDetailGuard&#45;&gt;ProductModule</title>
<path fill="none" stroke="#000000" d="M348.419,-189.0166C348.419,-209.1483 348.419,-256 348.419,-256 348.419,-256 349.3129,-256 349.3129,-256"/>
<polygon fill="#000000" stroke="#000000" points="347.358,-259.5001 357.3579,-256 347.3579,-252.5001 347.358,-259.5001"/>
</g>
<!-- ProductService -->
<g id="node17" class="node">
<title>ProductService</title>
<ellipse fill="#fdb462" stroke="#000000" cx="94" cy="-180" rx="70.0616" ry="18"/>
<text text-anchor="middle" x="94" y="-175.8" font-family="Times,serif" font-size="14.00" fill="#000000">ProductService</text>
</g>
<!-- ProductService&#45;&gt;ProductModule -->
<g id="edge16" class="edge">
<title>ProductService&#45;&gt;ProductModule</title>
<path fill="none" stroke="#000000" d="M94,-198.0579C94,-202.4945 94,-206 94,-206 94,-206 371.709,-206 371.709,-206 371.709,-206 371.709,-227.9489 371.709,-227.9489"/>
<polygon fill="#000000" stroke="#000000" points="368.2091,-227.9488 371.709,-237.9489 375.2091,-227.9489 368.2091,-227.9488"/>
</g>
<!-- RouterModule.forChild(args) -->
<g id="node18" class="node">
<title>RouterModule.forChild(args)</title>
<polygon fill="#8dd3c7" stroke="#000000" points="1282.7323,-122 1279.7323,-126 1258.7323,-126 1255.7323,-122 1101.2677,-122 1101.2677,-86 1282.7323,-86 1282.7323,-122"/>
<text text-anchor="middle" x="1192" y="-99.8" font-family="Times,serif" font-size="14.00" fill="#000000">RouterModule.forChild(args)</text>
</g>
<!-- RouterModule.forChild(args)&#45;&gt;ProductRoutingModule -->
<g id="edge17" class="edge">
<title>RouterModule.forChild(args)&#45;&gt;ProductRoutingModule</title>
<path fill="none" stroke="#000000" d="M1192,-122.0109C1192,-122.0109 1192,-151.855 1192,-151.855"/>
<polygon fill="#000000" stroke="#000000" points="1188.5001,-151.8549 1192,-161.855 1195.5001,-151.855 1188.5001,-151.8549"/>
</g>
<!-- StarComponent -->
<g id="node19" class="node">
<title>StarComponent</title>
<polygon fill="#ffffb3" stroke="#000000" points="1528.8809,-274 1425.1191,-274 1425.1191,-238 1528.8809,-238 1528.8809,-274"/>
<text text-anchor="middle" x="1477" y="-251.8" font-family="Times,serif" font-size="14.00" fill="#000000">StarComponent</text>
</g>
<!-- StarComponent&#45;&gt;SharedModule -->
<g id="edge19" class="edge">
<title>StarComponent&#45;&gt;SharedModule</title>
<path fill="none" stroke="#000000" d="M1477,-237.7181C1477,-222.0522 1477,-202 1477,-202 1477,-202 1073.161,-202 1073.161,-202 1073.161,-202 1073.161,-201.6168 1073.161,-201.6168"/>
<polygon fill="#000000" stroke="#000000" points="1076.6613,-208.1678 1073.161,-198.1679 1069.6613,-208.168 1076.6613,-208.1678"/>
</g>
<!-- CommonModule -->
<g id="node20" class="node">
<title>CommonModule</title>
<polygon fill="#8dd3c7" stroke="#000000" points="1400.6681,-274 1397.6681,-278 1376.6681,-278 1373.6681,-274 1289.3319,-274 1289.3319,-238 1400.6681,-238 1400.6681,-274"/>
<text text-anchor="middle" x="1345" y="-251.8" font-family="Times,serif" font-size="14.00" fill="#000000">CommonModule</text>
</g>
<!-- CommonModule&#45;&gt;SharedModule -->
<g id="edge20" class="edge">
<title>CommonModule&#45;&gt;SharedModule</title>
<path fill="none" stroke="#000000" d="M1345,-237.8196C1345,-224.9618 1345,-210 1345,-210 1345,-210 1059.636,-210 1059.636,-210 1059.636,-210 1059.636,-208.1432 1059.636,-208.1432"/>
<polygon fill="#000000" stroke="#000000" points="1063.1361,-208.1432 1059.636,-198.1432 1056.1361,-208.1432 1063.1361,-208.1432"/>
</g>
</g>
</svg>
